# xmcd
#
# Track frame offsets:
#	150
#	20492
#	37021
#	54580
#	74600
#	90666
#	108029
#	123109
#	143416
#	163362
#	181106
#	198503
#	229548
#	246793
#	260639
#	274163
#
# Disc length: 3888 seconds
#
# Revision: 0
# Processed by: cddbd v1.5.2PL0 Copyright (c) Steve Scherf et al.
# Submitted via: audiograbber 1.83.01
#
DISCID=dd0f2e10
DTITLE=Minos - Emi Sampler (καλοκαίρι 2001) - cd1
DYEAR=2001
DGENRE=Ethnic
TTITLE0=Γιάννης Πάριος  - Μου 'χεις Κάνει Τη Ζωή Μου Κόλαση
TTITLE1=Βαλάντης  - Σαν Αντικείμενα Παλιά
TTITLE2=Δημήτρης Κόκοτας  - Πες Μου Τι Φταίω
TTITLE3=Βασίλης Καρράς  - 12 Παρα (house remix) 
TTITLE4=Νίκος Σπέρης  - Δεν Με Γελάς 
TTITLE5=Σάκης Ρουβάς  - Ειν' Ότι Κράτησα 
TTITLE6=One  - Moro Mou
TTITLE7=Ευριδίκη  - Για Μένα (remix) 
TTITLE8=Μιχάλης Ρακιντζής  - Σπασμένα Φτερά 
TTITLE9=’γγελος Διονυσίου  - Δική Μου Η Τρέλλα 
TTITLE10=Βασίλης Καρράς  - Γύρισε (club mix) 
TTITLE11=Γιώργος Μαργαρίτης  - Δρόμοι Του Πουθενά
TTITLE12=Βασίλης Παπακωνσταντίνου  - Πες Του Να Πάει 
TTITLE13=Μαρίνα Γελε  - Ότι Και Να Κάνεις 
TTITLE14=Γρηγόρης Μπιθικώτσης  - Οι Χάρτες 
TTITLE15=Γιάννης Πάριος  - Κινδυνεύω
EXTD=
EXTT0=
EXTT1=
EXTT2=
EXTT3=
EXTT4=
EXTT5=
EXTT6=
EXTT7=
EXTT8=
EXTT9=
EXTT10=
EXTT11=
EXTT12=
EXTT13=
EXTT14=
EXTT15=
PLAYORDER=
